<mxfile host="app.diagrams.net" modified="2021-04-24T14:39:18.666Z" agent="5.0 (Windows NT 10.0; Win64; x64) AppleWebKit/537.36 (KHTML, like Gecko) Chrome/86.0.4240.198 Whale/2.9.116.15 Safari/537.36" etag="sD3mM2dog2EZVKvptGWP" version="14.6.6" type="github">
  <diagram id="mtXusVuRq8ULlgbZbmsT" name="Page-1">
    <mxGraphModel dx="737" dy="783" grid="1" gridSize="10" guides="1" tooltips="1" connect="1" arrows="1" fold="1" page="1" pageScale="1" pageWidth="827" pageHeight="1169" math="0" shadow="0">
      <root>
        <mxCell id="0" />
        <mxCell id="1" parent="0" />
        <mxCell id="bcshMdE293iyDVxzeFrG-1" value="" style="shape=internalStorage;whiteSpace=wrap;html=1;backgroundOutline=1;dx=130;dy=60;" parent="1" vertex="1">
          <mxGeometry x="600" y="290" width="130" height="80" as="geometry" />
        </mxCell>
        <mxCell id="bcshMdE293iyDVxzeFrG-2" value="" style="verticalLabelPosition=bottom;verticalAlign=top;html=1;shape=mxgraph.basic.smiley" parent="1" vertex="1">
          <mxGeometry x="600" y="270" width="30" height="30" as="geometry" />
        </mxCell>
        <mxCell id="bcshMdE293iyDVxzeFrG-3" value="" style="shape=internalStorage;whiteSpace=wrap;html=1;backgroundOutline=1;dx=120;dy=60;" parent="1" vertex="1">
          <mxGeometry x="610" y="80" width="120" height="80" as="geometry" />
        </mxCell>
        <mxCell id="bcshMdE293iyDVxzeFrG-4" value="" style="verticalLabelPosition=bottom;verticalAlign=top;html=1;shape=mxgraph.basic.smiley" parent="1" vertex="1">
          <mxGeometry x="610" y="60" width="30" height="30" as="geometry" />
        </mxCell>
        <mxCell id="bcshMdE293iyDVxzeFrG-5" value="" style="shape=internalStorage;whiteSpace=wrap;html=1;backgroundOutline=1;dx=120;dy=60;" parent="1" vertex="1">
          <mxGeometry x="360" y="200" width="120" height="80" as="geometry" />
        </mxCell>
        <mxCell id="bcshMdE293iyDVxzeFrG-6" value="" style="shape=internalStorage;whiteSpace=wrap;html=1;backgroundOutline=1;dx=80;dy=80;" parent="1" vertex="1">
          <mxGeometry x="110" y="330" width="80" height="110" as="geometry" />
        </mxCell>
        <mxCell id="bcshMdE293iyDVxzeFrG-7" value="" style="shape=internalStorage;whiteSpace=wrap;html=1;backgroundOutline=1;dx=80;dy=60;" parent="1" vertex="1">
          <mxGeometry x="110" y="170" width="80" height="100" as="geometry" />
        </mxCell>
        <mxCell id="bcshMdE293iyDVxzeFrG-8" value="Actor" style="shape=umlActor;verticalLabelPosition=bottom;verticalAlign=top;html=1;outlineConnect=0;" parent="1" vertex="1">
          <mxGeometry x="30" y="310" width="30" height="60" as="geometry" />
        </mxCell>
        <mxCell id="bcshMdE293iyDVxzeFrG-9" value="Guest" style="text;html=1;strokeColor=none;fillColor=none;align=center;verticalAlign=middle;whiteSpace=wrap;rounded=0;" parent="1" vertex="1">
          <mxGeometry x="25" y="280" width="40" height="20" as="geometry" />
        </mxCell>
        <mxCell id="bcshMdE293iyDVxzeFrG-10" value="Interface Page" style="text;html=1;strokeColor=none;fillColor=none;align=center;verticalAlign=middle;whiteSpace=wrap;rounded=0;" parent="1" vertex="1">
          <mxGeometry x="130" y="370" width="40" height="25" as="geometry" />
        </mxCell>
        <mxCell id="bcshMdE293iyDVxzeFrG-11" value="Controller" style="text;html=1;strokeColor=none;fillColor=none;align=center;verticalAlign=middle;whiteSpace=wrap;rounded=0;" parent="1" vertex="1">
          <mxGeometry x="400" y="230" width="40" height="20" as="geometry" />
        </mxCell>
        <mxCell id="bcshMdE293iyDVxzeFrG-12" value="Page Maker" style="text;html=1;strokeColor=none;fillColor=none;align=center;verticalAlign=middle;whiteSpace=wrap;rounded=0;" parent="1" vertex="1">
          <mxGeometry x="625" y="320" width="80" height="20" as="geometry" />
        </mxCell>
        <mxCell id="bcshMdE293iyDVxzeFrG-13" value="Database Connection" style="text;html=1;strokeColor=none;fillColor=none;align=center;verticalAlign=middle;whiteSpace=wrap;rounded=0;" parent="1" vertex="1">
          <mxGeometry x="650" y="110" width="40" height="20" as="geometry" />
        </mxCell>
        <mxCell id="bcshMdE293iyDVxzeFrG-14" value="" style="endArrow=classic;html=1;entryX=-0.013;entryY=0.12;entryDx=0;entryDy=0;entryPerimeter=0;" parent="1" edge="1">
          <mxGeometry width="50" height="50" relative="1" as="geometry">
            <mxPoint x="190" y="220" as="sourcePoint" />
            <mxPoint x="358.44000000000005" y="219.5999999999999" as="targetPoint" />
            <Array as="points">
              <mxPoint x="240" y="220" />
              <mxPoint x="270" y="220" />
            </Array>
          </mxGeometry>
        </mxCell>
        <mxCell id="bcshMdE293iyDVxzeFrG-15" value="" style="endArrow=classic;html=1;entryX=1;entryY=0.25;entryDx=0;entryDy=0;" parent="1" edge="1">
          <mxGeometry width="50" height="50" relative="1" as="geometry">
            <mxPoint x="360" y="250" as="sourcePoint" />
            <mxPoint x="190" y="350" as="targetPoint" />
            <Array as="points">
              <mxPoint x="280" y="250" />
              <mxPoint x="280" y="350" />
            </Array>
          </mxGeometry>
        </mxCell>
        <mxCell id="bcshMdE293iyDVxzeFrG-16" value="" style="endArrow=classic;html=1;entryX=1;entryY=0.875;entryDx=0;entryDy=0;entryPerimeter=0;" parent="1" edge="1">
          <mxGeometry width="50" height="50" relative="1" as="geometry">
            <mxPoint x="660" y="370" as="sourcePoint" />
            <mxPoint x="190" y="425" as="targetPoint" />
            <Array as="points">
              <mxPoint x="660" y="425" />
            </Array>
          </mxGeometry>
        </mxCell>
        <mxCell id="bcshMdE293iyDVxzeFrG-17" value="" style="endArrow=classic;html=1;exitX=1;exitY=0.25;exitDx=0;exitDy=0;entryX=0.109;entryY=1.023;entryDx=0;entryDy=0;entryPerimeter=0;" parent="1" edge="1">
          <mxGeometry width="50" height="50" relative="1" as="geometry">
            <mxPoint x="480.0000000000002" y="230" as="sourcePoint" />
            <mxPoint x="643.0799999999997" y="161.3800000000001" as="targetPoint" />
            <Array as="points">
              <mxPoint x="643" y="230" />
            </Array>
          </mxGeometry>
        </mxCell>
        <mxCell id="bcshMdE293iyDVxzeFrG-18" value="" style="endArrow=classic;html=1;entryX=0.75;entryY=0;entryDx=0;entryDy=0;" parent="1" target="bcshMdE293iyDVxzeFrG-1" edge="1">
          <mxGeometry width="50" height="50" relative="1" as="geometry">
            <mxPoint x="698" y="160" as="sourcePoint" />
            <mxPoint x="705" y="287" as="targetPoint" />
          </mxGeometry>
        </mxCell>
        <mxCell id="bcshMdE293iyDVxzeFrG-19" value="" style="endArrow=classic;html=1;entryX=0;entryY=0.25;entryDx=0;entryDy=0;exitX=1;exitY=0.5;exitDx=0;exitDy=0;" parent="1" edge="1">
          <mxGeometry width="50" height="50" relative="1" as="geometry">
            <mxPoint x="480.0000000000002" y="250" as="sourcePoint" />
            <mxPoint x="600" y="325" as="targetPoint" />
            <Array as="points">
              <mxPoint x="530" y="250" />
              <mxPoint x="530" y="325" />
            </Array>
          </mxGeometry>
        </mxCell>
        <mxCell id="bcshMdE293iyDVxzeFrG-20" value="receives" style="text;html=1;strokeColor=none;fillColor=none;align=center;verticalAlign=middle;whiteSpace=wrap;rounded=0;" parent="1" vertex="1">
          <mxGeometry x="300" y="200" width="40" height="20" as="geometry" />
        </mxCell>
        <mxCell id="bcshMdE293iyDVxzeFrG-21" value="posts" style="text;html=1;strokeColor=none;fillColor=none;align=center;verticalAlign=middle;whiteSpace=wrap;rounded=0;" parent="1" vertex="1">
          <mxGeometry x="210" y="325" width="40" height="20" as="geometry" />
        </mxCell>
        <mxCell id="bcshMdE293iyDVxzeFrG-22" value="prepares" style="text;html=1;strokeColor=none;fillColor=none;align=center;verticalAlign=middle;whiteSpace=wrap;rounded=0;" parent="1" vertex="1">
          <mxGeometry x="210" y="400" width="40" height="20" as="geometry" />
        </mxCell>
        <mxCell id="bcshMdE293iyDVxzeFrG-23" value="convey requests" style="text;html=1;strokeColor=none;fillColor=none;align=center;verticalAlign=middle;whiteSpace=wrap;rounded=0;" parent="1" vertex="1">
          <mxGeometry x="540" y="300" width="40" height="20" as="geometry" />
        </mxCell>
        <mxCell id="bcshMdE293iyDVxzeFrG-24" value="convey requests" style="text;html=1;strokeColor=none;fillColor=none;align=center;verticalAlign=middle;whiteSpace=wrap;rounded=0;" parent="1" vertex="1">
          <mxGeometry x="600" y="180" width="40" height="20" as="geometry" />
        </mxCell>
        <mxCell id="bcshMdE293iyDVxzeFrG-25" value="provide data" style="text;html=1;strokeColor=none;fillColor=none;align=center;verticalAlign=middle;whiteSpace=wrap;rounded=0;" parent="1" vertex="1">
          <mxGeometry x="705" y="260" width="40" height="20" as="geometry" />
        </mxCell>
        <mxCell id="bcshMdE293iyDVxzeFrG-26" value="" style="endArrow=none;html=1;exitX=0.5;exitY=0;exitDx=0;exitDy=0;entryX=0;entryY=0.5;entryDx=0;entryDy=0;" parent="1" source="bcshMdE293iyDVxzeFrG-9" edge="1">
          <mxGeometry width="50" height="50" relative="1" as="geometry">
            <mxPoint x="320" y="250" as="sourcePoint" />
            <mxPoint x="110" y="225" as="targetPoint" />
            <Array as="points">
              <mxPoint x="45" y="225" />
            </Array>
          </mxGeometry>
        </mxCell>
        <mxCell id="bcshMdE293iyDVxzeFrG-27" value="" style="endArrow=none;html=1;entryX=-0.028;entryY=0.168;entryDx=0;entryDy=0;entryPerimeter=0;" parent="1" source="bcshMdE293iyDVxzeFrG-8" edge="1">
          <mxGeometry width="50" height="50" relative="1" as="geometry">
            <mxPoint x="320" y="250" as="sourcePoint" />
            <mxPoint x="107.75999999999999" y="340.15999999999985" as="targetPoint" />
          </mxGeometry>
        </mxCell>
        <mxCell id="bcshMdE293iyDVxzeFrG-28" value="" style="verticalLabelPosition=bottom;verticalAlign=top;html=1;shape=mxgraph.basic.smiley" parent="1" vertex="1">
          <mxGeometry x="360" y="180" width="30" height="30" as="geometry" />
        </mxCell>
        <mxCell id="bcshMdE293iyDVxzeFrG-29" value="&amp;lt;&amp;lt;control&amp;gt;&amp;gt;" style="text;html=1;strokeColor=none;fillColor=none;align=center;verticalAlign=middle;whiteSpace=wrap;rounded=0;" parent="1" vertex="1">
          <mxGeometry x="400" y="210" width="40" height="20" as="geometry" />
        </mxCell>
        <mxCell id="bcshMdE293iyDVxzeFrG-30" value="&amp;lt;&amp;lt;boundary&amp;gt;&amp;gt;" style="text;html=1;strokeColor=none;fillColor=none;align=center;verticalAlign=middle;whiteSpace=wrap;rounded=0;" parent="1" vertex="1">
          <mxGeometry x="130" y="180" width="40" height="20" as="geometry" />
        </mxCell>
        <mxCell id="bcshMdE293iyDVxzeFrG-31" value="&amp;lt;&amp;lt;boundary&amp;gt;&amp;gt;" style="text;html=1;strokeColor=none;fillColor=none;align=center;verticalAlign=middle;whiteSpace=wrap;rounded=0;" parent="1" vertex="1">
          <mxGeometry x="130" y="345" width="40" height="20" as="geometry" />
        </mxCell>
        <mxCell id="bcshMdE293iyDVxzeFrG-32" value="E Book ID" style="text;html=1;strokeColor=none;fillColor=none;align=center;verticalAlign=middle;whiteSpace=wrap;rounded=0;" parent="1" vertex="1">
          <mxGeometry x="110" y="240" width="80" height="20" as="geometry" />
        </mxCell>
        <mxCell id="bcshMdE293iyDVxzeFrG-33" value="Click Request" style="text;html=1;strokeColor=none;fillColor=none;align=center;verticalAlign=middle;whiteSpace=wrap;rounded=0;" parent="1" vertex="1">
          <mxGeometry x="110" y="200" width="80" height="20" as="geometry" />
        </mxCell>
        <mxCell id="bcshMdE293iyDVxzeFrG-34" value="&amp;lt;&amp;lt;boundary&amp;gt;&amp;gt;" style="text;html=1;strokeColor=none;fillColor=none;align=center;verticalAlign=middle;whiteSpace=wrap;rounded=0;" parent="1" vertex="1">
          <mxGeometry x="650" y="90" width="40" height="20" as="geometry" />
        </mxCell>
        <mxCell id="bcshMdE293iyDVxzeFrG-35" value="&amp;lt;&amp;lt;entity&amp;gt;&amp;gt;" style="text;html=1;strokeColor=none;fillColor=none;align=center;verticalAlign=middle;whiteSpace=wrap;rounded=0;" parent="1" vertex="1">
          <mxGeometry x="645" y="305" width="40" height="20" as="geometry" />
        </mxCell>
        <mxCell id="bcshMdE293iyDVxzeFrG-36" value="Actor" style="shape=umlActor;verticalLabelPosition=bottom;verticalAlign=top;html=1;outlineConnect=0;" parent="1" vertex="1">
          <mxGeometry x="810" y="100" width="30" height="60" as="geometry" />
        </mxCell>
        <mxCell id="bcshMdE293iyDVxzeFrG-37" value="Database" style="text;html=1;strokeColor=none;fillColor=none;align=center;verticalAlign=middle;whiteSpace=wrap;rounded=0;" parent="1" vertex="1">
          <mxGeometry x="805" y="80" width="40" height="20" as="geometry" />
        </mxCell>
        <mxCell id="bcshMdE293iyDVxzeFrG-38" value="" style="endArrow=none;html=1;exitX=1.015;exitY=0.62;exitDx=0;exitDy=0;exitPerimeter=0;" parent="1" source="bcshMdE293iyDVxzeFrG-3" target="bcshMdE293iyDVxzeFrG-36" edge="1">
          <mxGeometry width="50" height="50" relative="1" as="geometry">
            <mxPoint x="450" y="250" as="sourcePoint" />
            <mxPoint x="500" y="200" as="targetPoint" />
          </mxGeometry>
        </mxCell>
        <mxCell id="bcshMdE293iyDVxzeFrG-39" value="-----&lt;br&gt;-----&lt;br&gt;-----" style="whiteSpace=wrap;html=1;align=center;" parent="1" vertex="1">
          <mxGeometry x="100" y="140" width="30" height="40" as="geometry" />
        </mxCell>
        <mxCell id="bcshMdE293iyDVxzeFrG-40" value="-----&lt;br&gt;-----&lt;br&gt;-----" style="whiteSpace=wrap;html=1;align=center;" parent="1" vertex="1">
          <mxGeometry x="100" y="300" width="30" height="40" as="geometry" />
        </mxCell>
        <mxCell id="bcshMdE293iyDVxzeFrG-41" value="Actor" style="shape=umlActor;verticalLabelPosition=bottom;verticalAlign=top;html=1;outlineConnect=0;" parent="1" vertex="1">
          <mxGeometry x="810" y="495" width="30" height="60" as="geometry" />
        </mxCell>
        <mxCell id="bcshMdE293iyDVxzeFrG-42" value="E Book Viewer" style="text;html=1;strokeColor=none;fillColor=none;align=center;verticalAlign=middle;whiteSpace=wrap;rounded=0;" parent="1" vertex="1">
          <mxGeometry x="792.5" y="470" width="65" height="15" as="geometry" />
        </mxCell>
        <mxCell id="bcshMdE293iyDVxzeFrG-43" value="" style="shape=internalStorage;whiteSpace=wrap;html=1;backgroundOutline=1;dx=130;dy=60;" parent="1" vertex="1">
          <mxGeometry x="600" y="470" width="130" height="80" as="geometry" />
        </mxCell>
        <mxCell id="bcshMdE293iyDVxzeFrG-44" value="&amp;lt;&amp;lt;boundary&amp;gt;&amp;gt;" style="text;html=1;strokeColor=none;fillColor=none;align=center;verticalAlign=middle;whiteSpace=wrap;rounded=0;" parent="1" vertex="1">
          <mxGeometry x="645" y="490" width="40" height="20" as="geometry" />
        </mxCell>
        <mxCell id="bcshMdE293iyDVxzeFrG-45" value="Viewer" style="text;html=1;strokeColor=none;fillColor=none;align=center;verticalAlign=middle;whiteSpace=wrap;rounded=0;" parent="1" vertex="1">
          <mxGeometry x="640" y="510" width="40" height="20" as="geometry" />
        </mxCell>
        <mxCell id="bcshMdE293iyDVxzeFrG-46" value="" style="endArrow=classic;html=1;exitX=1.017;exitY=0.9;exitDx=0;exitDy=0;exitPerimeter=0;entryX=1;entryY=0.25;entryDx=0;entryDy=0;" parent="1" source="bcshMdE293iyDVxzeFrG-3" target="bcshMdE293iyDVxzeFrG-43" edge="1">
          <mxGeometry width="50" height="50" relative="1" as="geometry">
            <mxPoint x="600" y="430" as="sourcePoint" />
            <mxPoint x="780" y="330" as="targetPoint" />
            <Array as="points">
              <mxPoint x="770" y="152" />
              <mxPoint x="770" y="490" />
            </Array>
          </mxGeometry>
        </mxCell>
        <mxCell id="bcshMdE293iyDVxzeFrG-47" value="provide data" style="text;html=1;strokeColor=none;fillColor=none;align=center;verticalAlign=middle;whiteSpace=wrap;rounded=0;" parent="1" vertex="1">
          <mxGeometry x="730" y="450" width="40" height="20" as="geometry" />
        </mxCell>
        <mxCell id="bcshMdE293iyDVxzeFrG-48" value="" style="endArrow=none;html=1;" parent="1" edge="1">
          <mxGeometry width="50" height="50" relative="1" as="geometry">
            <mxPoint x="730" y="520" as="sourcePoint" />
            <mxPoint x="800" y="520" as="targetPoint" />
          </mxGeometry>
        </mxCell>
        <mxCell id="bcshMdE293iyDVxzeFrG-49" value="" style="endArrow=none;html=1;entryX=0;entryY=0.625;entryDx=0;entryDy=0;entryPerimeter=0;" parent="1" target="bcshMdE293iyDVxzeFrG-43" edge="1">
          <mxGeometry width="50" height="50" relative="1" as="geometry">
            <mxPoint x="70" y="350" as="sourcePoint" />
            <mxPoint x="440" y="380" as="targetPoint" />
            <Array as="points">
              <mxPoint x="80" y="350" />
              <mxPoint x="80" y="520" />
            </Array>
          </mxGeometry>
        </mxCell>
        <mxCell id="bcshMdE293iyDVxzeFrG-50" value="" style="verticalLabelPosition=bottom;verticalAlign=top;html=1;shape=mxgraph.basic.smiley" parent="1" vertex="1">
          <mxGeometry x="600" y="455" width="30" height="30" as="geometry" />
        </mxCell>
      </root>
    </mxGraphModel>
  </diagram>
</mxfile>
